<svg xmlns="http://www.w3.org/2000/svg" enable-background="new 0 0 512 512" height="512" width="512"><rect id="backgroundrect" width="100%" height="100%" x="0" y="0" fill="none" stroke="none"/><g class="currentLayer" style=""><title>Layer 1</title><g id="svg_1" class="selected" fill="#ffffff" fill-opacity="1"><path d="m65 161h-17c-8.284 0-15 6.716-15 15s6.716 15 15 15h17z" id="svg_2" fill="#ffffff" fill-opacity="1"/><path d="m65 401h-17c-8.284 0-15 6.716-15 15s6.716 15 15 15h17z" id="svg_3" fill="#ffffff" fill-opacity="1"/><path d="m65 321h-17c-8.284 0-15 6.716-15 15s6.716 15 15 15h17z" id="svg_4" fill="#ffffff" fill-opacity="1"/><path d="m65 241h-17c-8.284 0-15 6.716-15 15s6.716 15 15 15h17z" id="svg_5" fill="#ffffff" fill-opacity="1"/><path d="m65 81h-17c-8.284 0-15 6.716-15 15s6.716 15 15 15h17z" id="svg_6" fill="#ffffff" fill-opacity="1"/><path d="m161 0h-51c-24.813 0-45 20.187-45 45v36h47c8.284 0 15 6.716 15 15s-6.716 15-15 15c-13.652 0-32.31 0-47 0v50h47c8.284 0 15 6.716 15 15s-6.716 15-15 15c-24.358 0-10.12 0-47 0v50h47c8.284 0 15 6.716 15 15s-6.716 15-15 15c-13.652 0-32.31 0-47 0v50h47c8.284 0 15 6.716 15 15s-6.716 15-15 15c-24.358 0-10.12 0-47 0v50h47c8.284 0 15 6.716 15 15s-6.716 15-15 15c-13.652 0-32.31 0-47 0v36c0 24.813 20.187 45 45 45h51z" id="svg_7" fill="#ffffff" fill-opacity="1"/><path d="m286 111h68v34h-68z" id="svg_8" fill="#ffffff" fill-opacity="1"/><path d="m434 0h-243v512h243c24.813 0 45-20.187 45-45v-422c0-24.813-20.187-45-45-45zm-50 160c0 8.284-6.716 15-15 15h-98c-8.284 0-15-6.716-15-15v-64c0-8.284 6.716-15 15-15h98c8.284 0 15 6.716 15 15z" id="svg_9" fill="#ffffff" fill-opacity="1"/></g></g></svg>