<svg xmlns="http://www.w3.org/2000/svg" enable-background="new 0 0 512 512" height="512" width="512"><rect id="backgroundrect" width="100%" height="100%" x="0" y="0" fill="none" stroke="none"/><g class="currentLayer" style=""><title>Layer 1</title><g id="svg_1" class="selected" fill="#ffffff" fill-opacity="1"><path d="m512 230c0-7.931-2.07-15.384-5.687-21.862l-178.981 139.184 178.569 142.254c3.871-6.64 6.099-14.35 6.099-22.576z" id="svg_2" fill="#ffffff" fill-opacity="1"/><path d="m246.759 357.731c5.441 4.254 13.041 4.255 18.482 0l218.027-169.675c-5.049-1.966-10.532-3.056-16.268-3.056h-65.108c-23.118 57.945-79.799 99-145.892 99s-122.774-41.055-145.892-99h-65.108c-5.736 0-11.219 1.09-16.268 3.056z" id="svg_3" fill="#ffffff" fill-opacity="1"/><path d="m5.687 208.138c-3.617 6.478-5.687 13.931-5.687 21.862v237c0 8.226 2.228 15.936 6.099 22.577l178.569-142.254z" id="svg_4" fill="#ffffff" fill-opacity="1"/><path d="m302.994 366.29-19.272 15.072c-8.161 6.382-17.942 9.574-27.722 9.574s-19.561-3.191-27.722-9.573l-19.273-15.073-179.461 142.965c4.822 1.773 10.026 2.745 15.456 2.745h422c5.43 0 10.634-.972 15.456-2.745z" id="svg_5" fill="#ffffff" fill-opacity="1"/><path d="m256 0c-70.028 0-127 56.972-127 127s56.972 127 127 127 127-56.972 127-127-56.972-127-127-127zm15 176c0 8.284-6.716 15-15 15s-15-6.716-15-15v-48c0-8.284 6.716-15 15-15s15 6.716 15 15zm-15-80.999c-8.284 0-15-6.716-15-15s6.716-15 15-15 15 6.716 15 15-6.716 15-15 15z" id="svg_6" fill="#ffffff" fill-opacity="1"/></g></g></svg>